<?xml version="1.0" encoding="UTF-8" standalone="no"?>
<svg
   xmlns:dc="http://purl.org/dc/elements/1.1/"
   xmlns:cc="http://creativecommons.org/ns#"
   xmlns:rdf="http://www.w3.org/1999/02/22-rdf-syntax-ns#"
   xmlns:svg="http://www.w3.org/2000/svg"
   xmlns="http://www.w3.org/2000/svg"
   xmlns:sodipodi="http://sodipodi.sourceforge.net/DTD/sodipodi-0.dtd"
   xmlns:inkscape="http://www.inkscape.org/namespaces/inkscape"
   inkscape:version="1.0 (4035a4f, 2020-05-01)"
   sodipodi:docname="briefcase.svg"
   xml:space="preserve"
   style="enable-background:new 0 0 512 512;"
   viewBox="0 0 512 512"
   y="0px"
   x="0px"
   id="Capa_1"
   version="1.1"><metadata
   id="metadata2129"><rdf:RDF><cc:Work
       rdf:about=""><dc:format>image/svg+xml</dc:format><dc:type
         rdf:resource="http://purl.org/dc/dcmitype/StillImage" /></cc:Work></rdf:RDF></metadata><defs
   id="defs2127" /><sodipodi:namedview
   inkscape:current-layer="Capa_1"
   inkscape:window-maximized="0"
   inkscape:window-y="23"
   inkscape:window-x="0"
   inkscape:cy="279.01322"
   inkscape:cx="100.75773"
   inkscape:zoom="0.60901177"
   showgrid="false"
   id="namedview2125"
   inkscape:window-height="743"
   inkscape:window-width="1158"
   inkscape:pageshadow="2"
   inkscape:pageopacity="0"
   guidetolerance="10"
   gridtolerance="10"
   objecttolerance="10"
   borderopacity="1"
   bordercolor="#666666"
   pagecolor="#ffffff" />
<g
   style="fill:#ffffff;fill-opacity:1"
   id="g2092">
	<path
   style="fill:#ffffff;fill-opacity:1"
   id="path2086"
   d="M480,112h-96V48c0-17.672-14.328-32-32-32H160c-17.672,0-32,14.328-32,32v64H32c-17.594,0-32,14.406-32,32v96h192   c0-17.672,14.327-32,32-32h64c17.673,0,32,14.328,32,32h192v-96C512,126.406,497.594,112,480,112z M192,112V80h128v32H192z" />
	<path
   style="fill:#ffffff;fill-opacity:1"
   id="path2088"
   d="M320,304c0,17.672-14.327,32-32,32h-64c-17.673,0-32-14.328-32-32v-32H0v192c0,17.594,14.406,32,32,32h448   c17.594,0,32-14.406,32-32V272H320V304z" />
	<rect
   style="fill:#ffffff;fill-opacity:1"
   id="rect2090"
   height="64"
   width="64"
   y="240"
   x="224" />
</g>
<g
   id="g2094">
</g>
<g
   id="g2096">
</g>
<g
   id="g2098">
</g>
<g
   id="g2100">
</g>
<g
   id="g2102">
</g>
<g
   id="g2104">
</g>
<g
   id="g2106">
</g>
<g
   id="g2108">
</g>
<g
   id="g2110">
</g>
<g
   id="g2112">
</g>
<g
   id="g2114">
</g>
<g
   id="g2116">
</g>
<g
   id="g2118">
</g>
<g
   id="g2120">
</g>
<g
   id="g2122">
</g>
</svg>
