<?xml version="1.0" encoding="UTF-8" standalone="no"?>
<svg
   xmlns:dc="http://purl.org/dc/elements/1.1/"
   xmlns:cc="http://creativecommons.org/ns#"
   xmlns:rdf="http://www.w3.org/1999/02/22-rdf-syntax-ns#"
   xmlns:svg="http://www.w3.org/2000/svg"
   xmlns="http://www.w3.org/2000/svg"
   xmlns:sodipodi="http://sodipodi.sourceforge.net/DTD/sodipodi-0.dtd"
   xmlns:inkscape="http://www.inkscape.org/namespaces/inkscape"
   height="24.4mm"
   width="11.8mm"
   version="1.1"
   id="Capa_1"
   x="0px"
   y="0px"
   viewBox="0 0 44.598425 92.220465"
   xml:space="preserve"
   sodipodi:docname="figure.svg"
   inkscape:version="1.0 (4035a4f, 2020-05-01)"><metadata
   id="metadata874"><rdf:RDF><cc:Work
       rdf:about=""><dc:format>image/svg+xml</dc:format><dc:type
         rdf:resource="http://purl.org/dc/dcmitype/StillImage" /><dc:title></dc:title></cc:Work></rdf:RDF></metadata><defs
   id="defs872" /><sodipodi:namedview
   width="20mm"
   units="mm"
   inkscape:document-rotation="0"
   pagecolor="#ffffff"
   bordercolor="#666666"
   borderopacity="1"
   objecttolerance="10"
   gridtolerance="10"
   guidetolerance="10"
   inkscape:pageopacity="0"
   inkscape:pageshadow="2"
   inkscape:window-width="1332"
   inkscape:window-height="785"
   id="namedview870"
   showgrid="false"
   inkscape:zoom="4.1288963"
   inkscape:cx="31.433319"
   inkscape:cy="71.974552"
   inkscape:window-x="0"
   inkscape:window-y="23"
   inkscape:window-maximized="0"
   inkscape:current-layer="Capa_1" />
<g
   transform="translate(-23.734862,0.1707544)"
   id="g837"
   style="fill:#fdcd2d;fill-opacity:1">
	<path
   d="m 46.004,21.672 c 5.975,0 10.836,-4.861 10.836,-10.836 C 56.84,4.861 51.979,0 46.004,0 40.029,0 35.169,4.861 35.169,10.836 c 0,5.975 4.86,10.836 10.835,10.836 z"
   id="path833"
   style="fill:#fdcd2d;fill-opacity:1" />
	<path
   d="M 68.074,54.008 59.296,26.81 C 58.826,25.354 57.26,24.214 55.73,24.214 H 54.418 53.48 38.526 37.588 36.276 c -1.53,0 -3.096,1.14 -3.566,2.596 l -8.776,27.198 c -0.26,0.807 -0.152,1.623 0.297,2.24 0.449,0.617 1.193,0.971 2.041,0.971 h 2.25 c 1.53,0 3.096,-1.14 3.566,-2.596 l 2.5,-7.75 v 10.466 0.503 29.166 c 0,2.757 2.243,5 5,5 h 0.352 c 2.757,0 5,-2.243 5,-5 V 60.842 h 2.127 v 26.166 c 0,2.757 2.243,5 5,5 h 0.352 c 2.757,0 5,-2.243 5,-5 V 57.842 57.339 46.869 l 2.502,7.754 c 0.47,1.456 2.036,2.596 3.566,2.596 h 2.25 c 0.848,0 1.591,-0.354 2.041,-0.971 0.45,-0.617 0.556,-1.433 0.296,-2.24 z"
   id="path835"
   style="fill:#fdcd2d;fill-opacity:1" />
</g>
<g
   id="g839">
</g>
<g
   id="g841">
</g>
<g
   id="g843">
</g>
<g
   id="g845">
</g>
<g
   id="g847">
</g>
<g
   id="g849">
</g>
<g
   id="g851">
</g>
<g
   id="g853">
</g>
<g
   id="g855">
</g>
<g
   id="g857">
</g>
<g
   id="g859">
</g>
<g
   id="g861">
</g>
<g
   id="g863">
</g>
<g
   id="g865">
</g>
<g
   id="g867">
</g>
</svg>
