<?xml version="1.0" encoding="UTF-8" standalone="no"?>
<svg
   xmlns:dc="http://purl.org/dc/elements/1.1/"
   xmlns:cc="http://creativecommons.org/ns#"
   xmlns:rdf="http://www.w3.org/1999/02/22-rdf-syntax-ns#"
   xmlns:svg="http://www.w3.org/2000/svg"
   xmlns="http://www.w3.org/2000/svg"
   xmlns:sodipodi="http://sodipodi.sourceforge.net/DTD/sodipodi-0.dtd"
   xmlns:inkscape="http://www.inkscape.org/namespaces/inkscape"
   version="1.1"
   id="Capa_1"
   x="0px"
   y="0px"
   viewBox="0 0 306.773 306.773"
   style="enable-background:new 0 0 306.773 306.773;"
   xml:space="preserve"
   sodipodi:docname="home-color.svg"
   inkscape:version="1.0 (4035a4f, 2020-05-01)"><metadata
   id="metadata919"><rdf:RDF><cc:Work
       rdf:about=""><dc:format>image/svg+xml</dc:format><dc:type
         rdf:resource="http://purl.org/dc/dcmitype/StillImage" /><dc:title></dc:title></cc:Work></rdf:RDF></metadata><defs
   id="defs917" /><sodipodi:namedview
   inkscape:document-rotation="0"
   pagecolor="#ffffff"
   bordercolor="#666666"
   borderopacity="1"
   objecttolerance="10"
   gridtolerance="10"
   guidetolerance="10"
   inkscape:pageopacity="0"
   inkscape:pageshadow="2"
   inkscape:window-width="1440"
   inkscape:window-height="785"
   id="namedview915"
   showgrid="false"
   inkscape:zoom="0.36502217"
   inkscape:cx="88.188198"
   inkscape:cy="233.76361"
   inkscape:window-x="0"
   inkscape:window-y="23"
   inkscape:window-maximized="0"
   inkscape:current-layer="Capa_1" />
<g
   id="g882"
   style="fill:#fdcd2d;fill-opacity:1">
	<path
   style="fill:#fdcd2d;fill-opacity:1"
   d="M302.93,149.794c5.561-6.116,5.024-15.49-1.199-20.932L164.63,8.898   c-6.223-5.442-16.2-5.328-22.292,0.257L4.771,135.258c-6.092,5.585-6.391,14.947-0.662,20.902l3.449,3.592   c5.722,5.955,14.971,6.665,20.645,1.581l10.281-9.207v134.792c0,8.27,6.701,14.965,14.965,14.965h53.624   c8.264,0,14.965-6.695,14.965-14.965v-94.3h68.398v94.3c-0.119,8.264,5.794,14.959,14.058,14.959h56.828   c8.264,0,14.965-6.695,14.965-14.965V154.024c0,0,2.84,2.488,6.343,5.567c3.497,3.073,10.842,0.609,16.403-5.513L302.93,149.794z"
   id="path880" />
</g>
<g
   id="g884">
</g>
<g
   id="g886">
</g>
<g
   id="g888">
</g>
<g
   id="g890">
</g>
<g
   id="g892">
</g>
<g
   id="g894">
</g>
<g
   id="g896">
</g>
<g
   id="g898">
</g>
<g
   id="g900">
</g>
<g
   id="g902">
</g>
<g
   id="g904">
</g>
<g
   id="g906">
</g>
<g
   id="g908">
</g>
<g
   id="g910">
</g>
<g
   id="g912">
</g>
</svg>
