<?xml version="1.0" encoding="UTF-8" standalone="no"?>
<svg
   xmlns:dc="http://purl.org/dc/elements/1.1/"
   xmlns:cc="http://creativecommons.org/ns#"
   xmlns:rdf="http://www.w3.org/1999/02/22-rdf-syntax-ns#"
   xmlns:svg="http://www.w3.org/2000/svg"
   xmlns="http://www.w3.org/2000/svg"
   xmlns:sodipodi="http://sodipodi.sourceforge.net/DTD/sodipodi-0.dtd"
   xmlns:inkscape="http://www.inkscape.org/namespaces/inkscape"
   inkscape:version="1.0 (4035a4f, 2020-05-01)"
   sodipodi:docname="home.svg"
   xml:space="preserve"
   style="enable-background:new 0 0 512 512;"
   viewBox="0 0 512 512"
   y="0px"
   x="0px"
   id="Capa_1"
   version="1.1"><metadata
   id="metadata1459"><rdf:RDF><cc:Work
       rdf:about=""><dc:format>image/svg+xml</dc:format><dc:type
         rdf:resource="http://purl.org/dc/dcmitype/StillImage" /></cc:Work></rdf:RDF></metadata><defs
   id="defs1457" /><sodipodi:namedview
   inkscape:current-layer="Capa_1"
   inkscape:window-maximized="1"
   inkscape:window-y="23"
   inkscape:window-x="0"
   inkscape:cy="256"
   inkscape:cx="256"
   inkscape:zoom="1.171875"
   showgrid="false"
   id="namedview1455"
   inkscape:window-height="786"
   inkscape:window-width="1440"
   inkscape:pageshadow="2"
   inkscape:pageopacity="0"
   guidetolerance="10"
   gridtolerance="10"
   objecttolerance="10"
   borderopacity="1"
   bordercolor="#666666"
   pagecolor="#ffffff" />
<g
   style="stroke-width:15;stroke-miterlimit:4;stroke-dasharray:none;stroke:#ffffff;stroke-opacity:1;fill:#ffffff;fill-opacity:1"
   id="g1422">
	<g
   style="stroke-width:15;stroke-miterlimit:4;stroke-dasharray:none;stroke:#ffffff;stroke-opacity:1;fill:#ffffff;fill-opacity:1"
   id="g1420">
		<path
   style="stroke-width:15;stroke-miterlimit:4;stroke-dasharray:none;stroke:#ffffff;stroke-opacity:1;fill:#ffffff;fill-opacity:1"
   id="path1418"
   d="M503.401,228.884l-43.253-39.411V58.79c0-8.315-6.741-15.057-15.057-15.057H340.976c-8.315,0-15.057,6.741-15.057,15.057    v8.374l-52.236-47.597c-10.083-9.189-25.288-9.188-35.367-0.001L8.598,228.885c-8.076,7.36-10.745,18.7-6.799,28.889    c3.947,10.189,13.557,16.772,24.484,16.772h36.689v209.721c0,8.315,6.741,15.057,15.057,15.057h125.913    c8.315,0,15.057-6.741,15.057-15.057V356.931H293v127.337c0,8.315,6.741,15.057,15.057,15.057h125.908    c8.315,0,15.057-6.741,15.056-15.057V274.547h36.697c10.926,0,20.537-6.584,24.484-16.772    C514.147,247.585,511.479,236.245,503.401,228.884z M433.965,244.433c-8.315,0-15.057,6.741-15.057,15.057v209.721h-95.793    V341.874c0-8.315-6.742-15.057-15.057-15.057H203.942c-8.315,0-15.057,6.741-15.057,15.057v127.337h-95.8V259.49    c0-8.315-6.741-15.057-15.057-15.057H36.245l219.756-200.24l74.836,68.191c4.408,4.016,10.771,5.051,16.224,2.644    c5.454-2.41,8.973-7.812,8.973-13.774V73.847h74.002v122.276c0,4.237,1.784,8.276,4.916,11.13l40.803,37.18H433.965z" />
	</g>
</g>
<g
   id="g1424">
</g>
<g
   id="g1426">
</g>
<g
   id="g1428">
</g>
<g
   id="g1430">
</g>
<g
   id="g1432">
</g>
<g
   id="g1434">
</g>
<g
   id="g1436">
</g>
<g
   id="g1438">
</g>
<g
   id="g1440">
</g>
<g
   id="g1442">
</g>
<g
   id="g1444">
</g>
<g
   id="g1446">
</g>
<g
   id="g1448">
</g>
<g
   id="g1450">
</g>
<g
   id="g1452">
</g>
</svg>
