<?xml version="1.0" encoding="UTF-8" standalone="no"?>
<svg
   xmlns:dc="http://purl.org/dc/elements/1.1/"
   xmlns:cc="http://creativecommons.org/ns#"
   xmlns:rdf="http://www.w3.org/1999/02/22-rdf-syntax-ns#"
   xmlns:svg="http://www.w3.org/2000/svg"
   xmlns="http://www.w3.org/2000/svg"
   xmlns:sodipodi="http://sodipodi.sourceforge.net/DTD/sodipodi-0.dtd"
   xmlns:inkscape="http://www.inkscape.org/namespaces/inkscape"
   inkscape:version="1.0 (4035a4f, 2020-05-01)"
   sodipodi:docname="refresh-arrow.svg"
   xml:space="preserve"
   style="enable-background:new 0 0 438.542 438.542;"
   viewBox="0 0 438.542 438.542"
   height="438.542px"
   width="438.542px"
   y="0px"
   x="0px"
   id="Capa_1"
   version="1.1"><metadata
   id="metadata872"><rdf:RDF><cc:Work
       rdf:about=""><dc:format>image/svg+xml</dc:format><dc:type
         rdf:resource="http://purl.org/dc/dcmitype/StillImage" /></cc:Work></rdf:RDF></metadata><defs
   id="defs870" /><sodipodi:namedview
   inkscape:current-layer="Capa_1"
   inkscape:window-maximized="0"
   inkscape:window-y="23"
   inkscape:window-x="0"
   inkscape:cy="219.271"
   inkscape:cx="219.271"
   inkscape:zoom="1.36817"
   showgrid="false"
   id="namedview868"
   inkscape:window-height="781"
   inkscape:window-width="1405"
   inkscape:pageshadow="2"
   inkscape:pageopacity="0"
   guidetolerance="10"
   gridtolerance="10"
   objecttolerance="10"
   borderopacity="1"
   bordercolor="#666666"
   pagecolor="#ffffff" />
<g
   style="fill:#ffffff;fill-opacity:1"
   id="g835">
	<path
   style="fill:#ffffff;fill-opacity:1"
   id="path833"
   d="M427.408,19.697c-7.803-3.23-14.463-1.902-19.986,3.999l-37.116,36.834C349.94,41.305,326.672,26.412,300.5,15.848   C274.328,5.285,247.251,0.003,219.271,0.003c-29.692,0-58.052,5.808-85.08,17.417c-27.03,11.61-50.347,27.215-69.951,46.82   c-19.605,19.607-35.214,42.921-46.824,69.949C5.807,161.219,0,189.575,0,219.271c0,29.687,5.807,58.05,17.417,85.079   c11.613,27.031,27.218,50.347,46.824,69.952c19.604,19.599,42.921,35.207,69.951,46.818c27.028,11.611,55.388,17.419,85.08,17.419   c32.736,0,63.865-6.899,93.363-20.7c29.5-13.795,54.625-33.26,75.377-58.386c1.52-1.903,2.234-4.045,2.136-6.424   c-0.089-2.378-0.999-4.329-2.711-5.852l-39.108-39.399c-2.101-1.711-4.473-2.566-7.139-2.566c-3.045,0.38-5.232,1.526-6.566,3.429   c-13.895,18.086-30.93,32.072-51.107,41.977c-20.173,9.894-41.586,14.839-64.237,14.839c-19.792,0-38.684-3.854-56.671-11.564   c-17.989-7.706-33.551-18.127-46.682-31.261c-13.13-13.135-23.551-28.691-31.261-46.682c-7.708-17.987-11.563-36.874-11.563-56.671   c0-19.795,3.858-38.691,11.563-56.674c7.707-17.985,18.127-33.547,31.261-46.678c13.135-13.134,28.693-23.555,46.682-31.265   c17.983-7.707,36.879-11.563,56.671-11.563c38.259,0,71.475,13.039,99.646,39.116l-39.409,39.394   c-5.903,5.711-7.231,12.279-4.001,19.701c3.241,7.614,8.856,11.42,16.854,11.42h127.906c4.949,0,9.23-1.807,12.848-5.424   c3.613-3.616,5.42-7.898,5.42-12.847V36.55C438.542,28.558,434.84,22.943,427.408,19.697z" />
</g>
<g
   id="g837">
</g>
<g
   id="g839">
</g>
<g
   id="g841">
</g>
<g
   id="g843">
</g>
<g
   id="g845">
</g>
<g
   id="g847">
</g>
<g
   id="g849">
</g>
<g
   id="g851">
</g>
<g
   id="g853">
</g>
<g
   id="g855">
</g>
<g
   id="g857">
</g>
<g
   id="g859">
</g>
<g
   id="g861">
</g>
<g
   id="g863">
</g>
<g
   id="g865">
</g>
</svg>
